<svg version="1.1" id="Layer_1" xmlns="http://www.w3.org/2000/svg" x="0" y="0" viewBox="0 0 504 36.2" xml:space="preserve"><style>.st1{fill:#15284b}</style><path class="st1" d="M130.4 7.9c.9 0 2 .1 3.4.1s2.6-.1 3.6-.1l.1.1v.9l-.1.1c-1.1 0-2 .1-2.3.4-.3.3-.4.6-.4 7.4v4c0 5.5-2.8 8.2-8.7 8.2-4.6 0-8.2-1.7-8.2-6.9v-5.3c0-6.9-.1-7.2-.4-7.4-.3-.2-1.2-.4-2.3-.4l-.1-.2v-.9l.1-.1c1.5.1 2.9.1 4.3.1s2.8-.1 4.3-.1l.1.1v.9l-.1.1c-1.1 0-2 .1-2.3.4-.3.3-.4.6-.4 7.4v4.9c0 2.5 1.2 5.3 5.9 5.3 4.4 0 6.2-2 6.2-5.9v-4.2c0-6.9-.1-7.2-.4-7.4-.3-.2-1.2-.4-2.3-.4l-.1-.1v-1zm8.5 8.6c0-.9 0-1.5-.2-1.8-.1-.2-.3-.3-.9-.4l-.8-.1v-.8c.9 0 1.7.1 2.6.1.6 0 1.2 0 1.8-.1.7 1 1.5 2 2.3 2.9l6.8 8v-7.8c0-.9 0-1.5-.2-1.8-.1-.2-.3-.3-.9-.4l-.8-.1v-.8c.8 0 1.7.1 2.5.1s1.7 0 2.5-.1v.8l-.8.1c-.6 0-.8.2-.9.4-.1.3-.2.9-.2 1.8v9.9c0 .8 0 1.6.1 2.2l-.2.1-1.8-.3-2.7-3-7.1-8.5v8.5c0 .9 0 1.5.2 1.8.1.2.3.3.9.4l.8.1v.8c-.8 0-1.7-.1-2.5-.1s-1.7 0-2.5.1v-.8l.8-.1c.6 0 .8-.2.9-.4.1-.3.2-.9.2-1.8v-8.9zm21.5 9c0 .9 0 1.5.2 1.8.1.2.3.3.9.3l.8.1v.9c-.9 0-2.1-.1-3.4-.1-1.3 0-2.5 0-3.4.1v-.9l.8-.1c.6 0 .8-.1.9-.3.1-.3.2-.9.2-1.8v-8.9c0-.9 0-1.5-.2-1.8-.1-.2-.3-.3-.9-.3l-.8-.1v-.9c.9 0 2.1.1 3.4.1 1.3 0 2.5 0 3.4-.1v.9l-.8.1c-.6 0-.8.1-.9.3-.1.3-.2.9-.2 1.8v8.9zm12.7-.7l3.1-7.7c.4-.9.7-1.7.7-2.1 0-.4-.4-.6-.8-.6l-1-.1v-.8c1.1 0 1.9.1 2.5.1.6 0 1.4 0 2.5-.1v.8l-.7.1c-.5 0-.8.4-1 1l-4.5 10.9c-.3.7-.5 1.4-.8 2.2h-1.7L166.1 16c-.3-.6-.6-1.5-1.4-1.6l-.9-.1v-.8c1.4 0 2.6.1 3.4.1s1.9 0 3.6-.1v.8l-1.1.1c-.3 0-.6.2-.6.4 0 .4.3 1.1.5 1.6l3.5 8.4zm13.5-4.7h2.9c.8 0 1.2 0 1.2-.5l.1-1.2h.9c0 .8-.1 1.6-.1 2.3 0 .8 0 1.6.1 2.4h-.9l-.1-1.1c-.1-.6-.5-.8-1.2-.8h-1.4c-.5 0-1 0-1.5.1v5.8c.9 0 1.9.1 2.8.1 1 0 2.6-.2 2.7-.4l.5-2.1h.9l-.2 3.5-.1.2c-.9.1-2.2.1-3.3.1h-2c-.9 0-1.8-.1-2.7-.1-.9 0-1.8 0-2.6.1V28l.7-.4c.3-.2.4-.6.4-1.2v-9.8c0-.9 0-1.5-.2-1.8-.1-.2-.3-.3-.9-.4l-.8-.1v-.8h3.4c2.1 0 3.5 0 4.8-.1h1.2c.7 0 1.4 0 2 .1l.1.2-.3 3.1h-.8l-.2-1.6c0-.3-1.5-.4-2.5-.4-.9 0-1.9 0-2.8.1v5.2zm10.4-3.6c0-.9 0-1.5-.2-1.8-.1-.2-.3-.3-.9-.4l-.8-.1v-.8c1.4 0 2.6.1 3.7.1 1.5 0 2.9 0 4.4-.1h.2c2.1 0 4.1.7 4.1 3.2 0 1.9-1.4 3.2-3.3 3.9l4 6c.2.2.4.5.6.7.2.2.5.2.9.3v.9c-.7 0-1.4-.1-2.1-.1-.7 0-1.3 0-2 .1l-4.9-7.6.2-.4h.4c1.8 0 3.1-1.2 3.1-3.1 0-1.8-1.2-2.8-2.9-2.8-.5 0-1 0-1.4.2v10.6c0 .9 0 1.5.2 1.8.1.2.3.3.9.3l.8.1v.9c-.9 0-2.1-.1-3.4-.1-1.3 0-2.5 0-3.4.1v-.9l.8-.1c.6 0 .8-.1.9-.3.1-.3.2-.9.2-1.8v-8.8zm15.7 7.5l.2 1.9c.6 1 2.3 1.7 3.4 1.7 1.9 0 3.4-1 3.4-2.9 0-.9-.6-1.7-1.8-2l-3.1-.9c-1.8-.5-3.2-1.8-3.2-3.7 0-3.5 2.6-4.8 5.8-4.8 1.4 0 2.8.2 4.1.7l.1.3c-.2.7-.3 2-.3 3.1h-.9l-.1-1.8c-.7-.7-1.9-1.2-2.9-1.2-2 0-3 1.2-3 2.6 0 1 .7 1.7 2.3 2.1l2.5.7c2 .5 3.3 1.8 3.3 3.8 0 3.7-3.1 5.3-6.4 5.3-1.6 0-3.2-.3-4.6-1 .3-1.3.3-2.5.3-3.8h.9zm16.3 1.5c0 .9 0 1.5.2 1.8.1.2.3.3.9.3l.8.1v.9c-.9 0-2.1-.1-3.4-.1-1.3 0-2.5 0-3.4.1v-.9l.8-.1c.6 0 .8-.1.9-.3.1-.3.2-.9.2-1.8v-8.9c0-.9 0-1.5-.2-1.8-.1-.2-.3-.3-.9-.3l-.8-.1v-.9c.9 0 2.1.1 3.4.1 1.3 0 2.5 0 3.4-.1v.9l-.8.1c-.6 0-.8.1-.9.3-.1.3-.2.9-.2 1.8v8.9zm11.9 0c0 .9 0 1.5.2 1.8.1.2.3.3.9.3l.8.1v.9c-.9 0-2.1-.1-3.4-.1-1.3 0-2.5 0-3.4.1v-.9l.8-.1c.6 0 .8-.1.9-.3.1-.3.2-.9.2-1.8V14.9h-2.6c-.6 0-1.2 0-1.4.2-.1.1-.2.3-.2.5l-.1 1.5h-.9c0-1.4-.1-2.4-.3-3.5l.1-.1c2.3 0 4.6.1 6.8.1s4.5 0 6.8-.1l.1.1c-.2 1-.2 2.1-.3 3.5h-.9l-.1-1.5c0-.2-.1-.4-.2-.5-.2-.2-.8-.2-1.4-.2h-2.6v10.6zM260 13.6h1.7v.4l-3.8 5.7c-.5.7-.8 1.4-1.2 2.2v3.6c0 .9 0 1.5.2 1.8.1.2.3.3.9.3l.8.1v.9c-.9 0-2.1-.1-3.4-.1-1.3 0-2.5 0-3.4.1v-.9l.8-.1c.6 0 .8-.1.9-.3.1-.3.2-.9.2-1.8v-3c-.4-.9-.7-1.4-1-1.9l-2.2-3.6c-.3-.5-.8-1-1.1-1.5-.5-.5-1-.7-1.7-.7V14l3.5-.8c1.2.7 1.9 1.8 2.5 3l2.3 4.4 4-7zm24.5 7.2c0 5.2-3.3 7.9-8.3 7.9-4.9 0-7.9-2.7-7.9-7.6 0-5.2 3.3-7.9 8.3-7.9 4.9 0 7.9 2.6 7.9 7.6zm-12.9-.1c0 3.6 1.5 6.8 4.6 6.8 4.1 0 5-3 5-6.3 0-3.6-1.5-6.8-4.6-6.8-4 0-5 3-5 6.3zm19.1-.6h2.6c.8 0 1.2 0 1.2-.5l.1-1.2h.9c0 .7-.1 1.5-.1 2.3 0 .8 0 1.6.1 2.4h-.9l-.1-1.1c-.1-.6-.5-.8-1.2-.8h-1.1c-.5 0-1 0-1.5.1v4.1c0 .9 0 1.5.2 1.8.1.2.3.3.9.3l1 .1v.9c-1.1 0-2.3-.1-3.6-.1-1.3 0-2.5 0-3.4.1v-.9l.8-.1c.6 0 .8-.1.9-.3.1-.3.2-.9.2-1.8v-8.9c0-.9 0-1.5-.2-1.8-.1-.2-.3-.3-.9-.4l-.8-.1v-.8h3.4c1.7 0 3.2 0 4.4-.1h1.2c.7 0 1.4 0 2 .1l.1.2-.3 3.1h-.8l-.2-1.6c0-.3-1.5-.4-2.5-.4-.6 0-1.5 0-2.4.1v5.3zm14.5-12.3c1.6 0 3 .1 4.4.1 1.4 0 2.8-.1 4.3-.1l.1.1v.9l-.1.1c-1.1 0-2 .1-2.3.4-.3.3-.4.6-.4 7.4v3c0 6.9.1 7.1.4 7.4.3.2 1.2.4 2.3.4l.1.1v.9l-.1.1c-1.5-.1-2.9-.1-4.3-.1s-2.8.1-4.3.1l-.1-.1v-.9l.1-.1c1.1 0 2-.1 2.3-.4.3-.3.4-.6.4-7.4v-3c0-6.9-.1-7.1-.4-7.4-.3-.2-1.2-.4-2.3-.4l-.1-.1v-1zM320.6 27c.9 0 1.9.1 2.8.1 1 0 2.6-.2 2.7-.4l.5-2.2h.9l-.2 3.6-.1.2c-.9.1-2.2.1-3.3.1h-2c-.9 0-1.8-.1-2.7-.1-.9 0-1.8 0-2.6.1v-.5l.7-.4c.3-.2.4-.6.4-1.2v-9.8c0-.9 0-1.5-.2-1.8-.1-.2-.3-.3-.9-.3l-.8-.1v-.9c.9 0 2.1.1 3.4.1 1.3 0 2.5 0 3.4-.1v.9l-.8.1c-.6 0-.8.1-.9.3-.1.3-.2.9-.2 1.8V27zm13.1 0c.9 0 1.9.1 2.8.1 1 0 2.6-.2 2.7-.4l.5-2.2h.9l-.2 3.6-.1.2c-.9.1-2.2.1-3.3.1h-2c-.9 0-1.8-.1-2.7-.1-.9 0-1.8 0-2.6.1v-.5l.7-.4c.3-.2.4-.6.4-1.2v-9.8c0-.9 0-1.5-.2-1.8-.1-.2-.3-.3-.9-.3l-.8-.1v-.9c.9 0 2.1.1 3.4.1 1.3 0 2.5 0 3.4-.1v.9l-.8.1c-.6 0-.8.1-.9.3-.1.3-.2.9-.2 1.8V27zm13.4-1.6c0 .9 0 1.5.2 1.8.1.2.3.3.9.3l.8.1v.9c-.9 0-2.1-.1-3.4-.1-1.3 0-2.5 0-3.4.1v-.9l.8-.1c.6 0 .8-.1.9-.3.1-.3.2-.9.2-1.8v-8.9c0-.9 0-1.5-.2-1.8-.1-.2-.3-.3-.9-.3l-.8-.1v-.9c.9 0 2.1.1 3.4.1 1.3 0 2.5 0 3.4-.1v.9l-.8.1c-.6 0-.8.1-.9.3-.1.3-.2.9-.2 1.8v8.9zm5.5-9c0-.9 0-1.5-.2-1.8-.1-.2-.3-.3-.9-.4l-.8-.1v-.8c.9 0 1.7.1 2.6.1.6 0 1.2 0 1.8-.1.7 1 1.5 2 2.3 2.9l6.8 8v-7.8c0-.9 0-1.5-.2-1.8-.1-.2-.3-.3-.9-.4l-.8-.1v-.8c.8 0 1.7.1 2.5.1s1.7 0 2.5-.1v.8l-.8.1c-.6 0-.8.2-.9.4-.1.3-.2.9-.2 1.8v9.9c0 .8 0 1.6.1 2.2l-.2.1-1.8-.3-2.7-3-7.1-8.5v8.5c0 .9 0 1.5.2 1.8.1.2.3.3.9.4l.8.1v.8c-.8 0-1.7-.1-2.5-.1s-1.7 0-2.5.1v-.8l.8-.1c.6 0 .8-.2.9-.4.1-.3.2-.9.2-1.8v-8.9zm32.3 4.4c0 5.2-3.3 7.9-8.3 7.9-4.9 0-7.9-2.7-7.9-7.6 0-5.2 3.3-7.9 8.3-7.9 4.9-.1 7.9 2.6 7.9 7.6zm-12.9-.1c0 3.6 1.5 6.8 4.6 6.8 4.1 0 5-3 5-6.3 0-3.6-1.5-6.8-4.6-6.8-4.1-.1-5 3-5 6.3zm19.2 4.7c0 .9 0 1.5.2 1.8.1.2.3.3.9.3l.8.1v.9c-.9 0-2.1-.1-3.4-.1-1.3 0-2.5 0-3.4.1v-.9l.8-.1c.6 0 .8-.1.9-.3.1-.3.2-.9.2-1.8v-8.9c0-.9 0-1.5-.2-1.8-.1-.2-.3-.3-.9-.3l-.8-.1v-.9c.9 0 2.1.1 3.4.1 1.3 0 2.5 0 3.4-.1v.9l-.8.1c-.6 0-.8.1-.9.3-.1.3-.2.9-.2 1.8v8.9zm5.1-1.5l.2 1.9c.6 1 2.3 1.7 3.4 1.7 1.9 0 3.4-1 3.4-2.9 0-.9-.6-1.7-1.8-2l-3.1-.9c-1.8-.5-3.2-1.8-3.2-3.7 0-3.5 2.6-4.8 5.8-4.8 1.4 0 2.8.2 4.1.7l.1.3c-.2.7-.3 2-.3 3.1h-.9l-.1-1.8c-.7-.7-1.9-1.2-2.9-1.2-2 0-3 1.2-3 2.6 0 1 .7 1.7 2.3 2.1l2.5.7c2 .5 3.3 1.8 3.3 3.8 0 3.7-3.1 5.3-6.4 5.3-1.6 0-3.2-.3-4.6-1 .3-1.3.3-2.5.3-3.8h.9zm17.9-.8c.1 1.2.1 1.5.2 2.1.1.4 1.5 2.1 4.8 2.1 3.4 0 5.3-1.7 5.3-4.5 0-6-11.7-.7-11.7-8.8 0-4.1 2.9-6.6 7.9-6.6 1.7 0 4.2.4 5.6 1.2l.1.2c-.3 1-.5 3.2-.5 4l-.1.1-.9-.1-.1-.1c0-1.8 0-2.1-.2-2.3-.5-.5-1.9-1.5-4.2-1.5-3.2 0-4.7 1.8-4.7 3.9 0 2.7 1.4 3.1 6.3 3.9 3.4.5 5.4 1.8 5.4 4.8 0 3.2-2.5 7.3-9 7.3-2.2 0-4.4-.6-5.5-1.2l-.1-.2c.2-1.3.3-2.9.3-4.2l.1-.1h1zm25.7-9.6h1.7v.4l-3.8 5.7c-.5.7-.8 1.4-1.2 2.2v3.6c0 .9 0 1.5.2 1.8.1.2.3.3.9.3l.8.1v.9c-.9 0-2.1-.1-3.4-.1-1.3 0-2.5 0-3.4.1v-.9l.8-.1c.6 0 .8-.1.9-.3.1-.3.2-.9.2-1.8v-3c-.4-.9-.7-1.4-1-1.9l-2.2-3.6c-.3-.5-.8-1-1.1-1.5-.5-.5-1-.7-1.7-.7v-.8l3.5-.8c1.2.7 1.9 1.8 2.5 3l2.3 4.4 4-7zm3.8 10.4l.2 1.9c.6 1 2.3 1.7 3.4 1.7 1.9 0 3.4-1 3.4-2.9 0-.9-.6-1.7-1.8-2l-3.1-.9c-1.8-.5-3.2-1.8-3.2-3.7 0-3.5 2.6-4.8 5.8-4.8 1.4 0 2.8.2 4.1.7l.1.3c-.2.7-.3 2-.3 3.1h-.9l-.1-1.8c-.7-.7-1.9-1.2-2.9-1.2-2 0-3 1.2-3 2.6 0 1 .7 1.7 2.3 2.1l2.5.7c2 .5 3.3 1.8 3.3 3.8 0 3.7-3.1 5.3-6.4 5.3-1.6 0-3.2-.3-4.6-1 .3-1.3.3-2.5.3-3.8h.9zm19.5 1.4c0 .9 0 1.5.2 1.8.1.2.3.3.9.3l.8.1v.9c-.9 0-2.1-.1-3.4-.1-1.3 0-2.5 0-3.4.1v-.9l.8-.1c.6 0 .8-.1.9-.3.1-.3.2-.9.2-1.8V14.7h-2.6c-.6 0-1.2 0-1.4.2-.1.1-.2.3-.2.5l-.1 1.5h-.9c0-1.4-.1-2.4-.3-3.5l.1-.1c2.3 0 4.6.1 6.8.1s4.5 0 6.8-.1l.1.1c-.2 1-.2 2.1-.3 3.5h-.9l-.1-1.5c0-.2-.1-.4-.2-.5-.2-.2-.8-.2-1.4-.2H463v10.6zm11.9-5.3h2.9c.8 0 1.2 0 1.2-.5l.1-1.2h.9c0 .8-.1 1.6-.1 2.3 0 .8 0 1.6.1 2.4h-.9l-.1-1.1c-.1-.6-.5-.8-1.2-.8h-1.4c-.5 0-1 0-1.5.1V27c.9 0 1.9.1 2.8.1 1 0 2.6-.2 2.7-.4l.5-2.1h.9l-.2 3.5-.1.2c-.9.1-2.2.1-3.3.1h-2c-.9 0-1.8-.1-2.7-.1-.9 0-1.8 0-2.6.1v-.5l.7-.4c.3-.2.4-.6.4-1.2v-9.8c0-.9 0-1.5-.2-1.8-.1-.2-.3-.3-.9-.4l-.8-.1v-.8h3.4c2.1 0 3.5 0 4.8-.1h1.2c.7 0 1.4 0 2 .1l.1.2-.3 3.1h-.8l-.2-1.6c0-.3-1.5-.4-2.5-.4-.9 0-1.9 0-2.8.1V20zm27 5.3c0 .9 0 1.5.2 1.8.1.2.3.3.9.3l.8.1v.9c-.9 0-2.1-.1-3.4-.1-1.3 0-2.5 0-3.4.1v-.9l.8-.1c.6 0 .8-.1.9-.3.1-.3.2-.9.2-1.8v-9l-4.5 9.3c-.5.9-1 2-1.3 2.9h-.7c-.2-.6-.5-1.2-.8-1.8l-5-10.4v9c0 .9 0 1.5.2 1.8.1.2.3.3.9.4l.8.1v.8c-.8 0-1.7-.1-2.5-.1s-1.7 0-2.5.1v-.8l.8-.1c.6 0 .8-.2.9-.4.1-.3.2-.9.2-1.8v-8.9c0-.9 0-1.5-.2-1.8-.1-.2-.3-.3-.9-.4l-.8-.1v-.8c.9 0 1.7.1 2.6.1.9 0 1.7 0 2.6-.1.4.9 1.2 2.5 1.6 3.5L494 24l4-8.3c.4-.8.7-1.7 1.1-2.5 1.1 0 1.9.1 2.5.1.7 0 1.4 0 2.5-.1v.8l-.8.1c-.6 0-.8.2-.9.4-.1.3-.2.9-.2 1.8v9zM100.4 0h.9v36.2h-.9zM0 14.2h3.3v9.9H0v5.7h14.8v-5.7h-3.3v-9.9h3.3V8.4H0zm40.9-6.3c-6.2 0-11.2 5-11.2 11.2s5 11.2 11.2 11.2c6.2 0 11.2-5 11.2-11.2s-5-11.2-11.2-11.2zm-2.2 12.2c0 1-.1 1.5-.4 2-.5.8-1.8 1.1-2.9 1.1-1.1 0-2.4-.3-2.9-1.1-.3-.5-.4-1-.4-2v-4.3h2.2v4.4c0 .5.1.8.2 1 .2.2.5.3.9.3s.7-.1.9-.3c.2-.2.2-.5.2-1v-4.4h2.2v4.3zm3.5 3H40v-7.3h2.2v7.3zm7.9-5.4l-1.9.9c-.2-.7-.6-1.1-1.3-1.1-.9 0-1.4.8-1.4 2 0 1.3.5 2 1.4 2 .6 0 1-.3 1.2-.9l2 .7c-.5 1.2-1.6 2-3.2 2-2.3 0-3.6-1.5-3.6-3.8 0-2.2 1.4-3.8 3.7-3.8 1.7 0 2.8 1 3.1 2zm18.6 6.4v2c0 .3 0 .6.1.8.1.4.2.8.4 1.1v.1c.3.3.6.5 1 .6.6.2 1.3.2 1.9 0 .4-.1.7-.3.9-.5.3-.2.4-.6.5-1 0-.2.1-.4.1-.6v-3c0-.2 0-.5.1-.7 0-.1.1-.2.1-.3.1-.1.2-.1.3-.2.1 0 .2-.1.3-.1h.1v-.2h-2.3v.2c.1 0 .3.1.4.1.3.1.4.2.5.5v3.3c0 .3 0 .5-.1.8-.1.5-.3.9-.7 1.2-.1.1-.2.1-.3.1-.4.1-.9.1-1.3 0h-.1c-.1 0-.3-.1-.4-.2-.2-.1-.3-.3-.4-.6 0-.1-.1-.1-.1-.2v-.2c0-.2-.1-.4-.1-.5V23c0-.1.1-.2.1-.3h.1c.1-.1.1-.1.2-.1h.1c.1 0 .2 0 .3-.1v-.2h-2.8v.2h.2c.1 0 .2 0 .3.1.3.1.3.3.3.7v.1c.3.1.3.4.3.7zm-1.5-2.4h15.9c.1 0 .2 0 .2-.1v-1.1c0-.3 0-.3-.3-.3H67.1c-.2 0-.3 0-.3.1v1c.1.3.1.4.4.4zm11 6.9c0-.1.1-.1.1-.2h.2c.1 0 .3.1.4.1.2.1.3.1.5.1.4.1.7.1 1.1 0 .7-.1 1.1-.6 1.3-1.1.1-.3.1-.7.1-1.1-.1-.4-.4-.7-.7-1l-.9-.6c-.2-.1-.4-.2-.6-.4-.1-.1-.2-.1-.2-.2-.1-.1-.3-.2-.4-.3-.1-.1-.2-.3-.3-.5v-.7c.2-.3.6-.5 1-.5.7.1 1.2.4 1.5 1 .1.2.2.4.2.6h.2c0-.2 0-.4-.1-.7 0-.4-.1-.9-.1-1.3h-.2v.1c-.1.2-.2.2-.4.2-.2-.1-.4-.1-.6-.2-.2-.1-.3-.1-.5-.1h-.7c-.4.1-.8.3-1 .6-.2.3-.4.7-.3 1.1 0 .5.3.8.6 1.1.4.3.8.5 1.2.8l.9.6.2.2c0 .1.1.1.1.2.1.2.1.4.1.6v.2c0 .1-.1.1-.1.2-.1.2-.3.4-.5.4-.1 0-.2.1-.3.1h-.4c-.4 0-.7-.2-1-.4-.4-.3-.6-.7-.7-1.1 0-.1-.1-.1-.1-.1h-.2c.1.7.2 1.3.3 2 .2.5.2.5.3.3zm4.9.7h-16c-.2 0-.2.1-.2.2v1c0 .3 0 .3.3.3h16c.3 0 .3 0 .3-.3v-.9c-.1-.3-.1-.3-.4-.3z"/><path class="st1" d="M74.8 28.8h2.9v-.2h-.2c-.1 0-.2 0-.3-.1-.2 0-.2-.1-.3-.2 0-.1-.1-.1-.1-.2v-5.2c0-.3.2-.4.4-.5.1 0 .2 0 .3-.1h.2v-.2h-2.9v.1c.2 0 .4.1.6.1.2 0 .3.2.3.4v5.4c-.1.2-.2.3-.4.3-.1 0-.3 0-.4.1-.1.2-.1.2-.1.3zM68 19.6h14.3c.2 0 .2-.1.2-.2v-.8c0-.2-.1-.2-.2-.2h-.4c-.1-.7-.2-1.3-.4-2-.3-1.3-.7-2.6-1.5-3.8-.7-1.1-1.7-2-3.1-2.5-.1 0-.3 0-.3-.1-.1-.1 0-.2 0-.4 0-.1-.1-.2-.2-.2s-.1 0-.1-.1V7.6c.3 0 .3-.1.3-.2 0-.3 0-.4-.3-.4v-.2c-.1-.3-.1-.6-.4-.9-.2-.3-.5-.4-.9-.4s-.7.3-.9.6c0 .2-.1.5-.1.8-.3 0-.3.1-.3.3 0 .3 0 .3.3.4v1.8c-.3.1-.3.1-.3.5v.1c0 .1 0 .1-.1.2-.4.2-.8.3-1.2.5-1 .6-1.8 1.4-2.3 2.4-.9 1.5-1.3 3.2-1.6 5-.1.4 0 .4-.4.4-.2 0-.2.1-.2.2v.8c-.2.1-.1.1.1.1zm8.6-9c.2.2.4.3.6.5 1.1 1.1 1.8 2.4 2.2 3.9.3 1 .5 2 .5 3.1v.1l-.1.1c-.1 0-.1-.1-.1-.2-.1-.4-.1-.7-.1-1.1-.3-1.5-.6-2.9-1.3-4.3-.4-.7-.9-1.4-1.5-2-.2 0-.3 0-.2-.1-.1.1-.1 0 0 0zm.4 5.3c.1.7.1 1.4.2 2.1 0 .1 0 .2-.1.2s-.1-.1-.1-.2c0-.3 0-.5-.1-.8-.1-1.3-.2-2.7-.5-4-.2-.8-.4-1.6-.6-2.5 0-.1 0-.1-.1-.2.2.5.4.9.5 1.4.4 1.4.7 2.7.8 4zm-1.6-6.8V7.9c0-.2.2-.3.3-.3.1.1.3.2.3.4v1.4h-.6v-.3zm-1.1 0v-1c0-.2.1-.3.3-.3.2 0 .3.1.3.3v1.4h-.6v-.4zm-.3 3.3c.2-.6.4-1.1.6-1.6 0-.1 0-.1.1-.1-.1.3-.2.5-.2.8-.4 1.4-.7 2.9-.8 4.3-.1.8-.1 1.5-.2 2.3 0 .1 0 .1-.1.2s-.2.1-.2 0v-.1c0-2.1.2-4 .8-5.8zm-3.4 4.8c.2-1.2.4-2.4.9-3.5.5-1.2 1.2-2.1 2.2-2.9l.1-.1h.1c-.8.7-1.4 1.5-1.8 2.4-.4.8-.7 1.7-.9 2.6-.2.8-.4 1.7-.4 2.5v.1l-.1.1c-.1 0-.1-.1-.1-.1-.1-.5-.1-.8 0-1.1z"/></svg>